<svg width="69" height="44" viewBox="0 0 69 44" fill="none" xmlns="http://www.w3.org/2000/svg">
<path d="M51.7859 11.54C44.1699 11.54 37.7195 16.2178 35.5195 22.6771H20.9109C18.6952 20.8921 15.8142 19.813 12.6643 19.813C5.66998 19.813 0 25.1315 0 31.6922C0 38.1562 5.50405 43.4141 12.3559 43.5678V43.5713H53.3685V43.5023C62.0563 42.7532 68.8602 35.9003 68.8602 27.5557C68.8602 18.7105 61.2158 11.54 51.7859 11.54Z" fill="#01ABA0"/>
<path d="M41.5743 23.8021C41.5743 32.5504 34.0136 39.6423 24.687 39.6423C15.3605 39.6423 7.7998 32.5504 7.7998 23.8021C7.7998 15.0538 15.3605 7.96191 24.687 7.96191C34.0136 7.96191 41.5743 15.0538 41.5743 23.8021Z" fill="#01ABA0"/>
<path d="M56.5508 16.0285C56.5508 24.8807 48.9003 32.0569 39.4629 32.0569C30.0255 32.0569 22.375 24.8807 22.375 16.0285C22.375 7.17619 30.0255 0 39.4629 0C48.9003 0 56.5508 7.17619 56.5508 16.0285Z" fill="#01ABA0"/>
<path d="M27.1966 30.4072L29.7969 33.2193L32.6682 36.3244C33.0038 36.6874 33.7001 36.6874 34.0358 36.3244L36.9071 33.2193L39.5074 30.4072C39.9066 29.9756 39.5087 29.3746 38.8237 29.3746L35.7733 29.3746L35.7733 20.9221C35.7733 19.6387 34.6893 18.5982 33.3519 18.5982C32.0147 18.5982 30.9307 19.6387 30.9307 20.9221L30.9307 29.3746L27.8803 29.3746C27.1953 29.3746 26.7974 29.9756 27.1966 30.4072Z" fill="white"/>
<path d="M11.7967 21.5046C11.7967 21.5046 13.3026 12.4072 23.2256 10.7918" stroke="white" stroke-miterlimit="16" stroke-linecap="round"/>
</svg>
