<svg width="115" height="154" viewBox="0 0 115 154" fill="none" xmlns="http://www.w3.org/2000/svg">
<path d="M89.1388 153.289H81.6804V150.802H89.0628L89.1388 153.289ZM74.2963 153.289H66.9122V150.802H74.2963V153.289ZM59.5299 153.289H52.1458V150.802H59.5299V153.289ZM44.7625 153.289H37.3794V150.802H44.7625V153.289ZM29.9948 153.289H22.6112V150.802H29.9948V153.289ZM15.2285 153.289H7.84484V150.802H15.2285V153.289ZM0.78968 148.881C0.267265 147.811 0.00298594 146.658 0.00196226 145.457V141.063H2.49171V145.456C2.49273 146.277 2.67255 147.062 3.02717 147.793L0.78968 148.881ZM96.156 148.797L93.9065 147.732C94.2435 147.02 94.4132 146.254 94.4132 145.456V140.981H96.905V145.456C96.905 146.625 96.6525 147.749 96.156 148.797ZM2.49171 133.686H0V126.31H2.49171V133.686ZM96.905 133.607H94.4141V126.231H96.905V133.607ZM2.49171 118.936H0V111.56H2.49171V118.936ZM96.905 118.856H94.4141V111.48H96.905V118.856ZM2.49171 104.184H0V96.8074H2.49171V104.184ZM96.905 104.104H94.4141V96.7281H96.905V104.104ZM2.49171 89.433H0V82.0577H2.49171V89.433ZM96.905 89.3537H94.4141V81.9768H96.905V89.3537ZM2.49171 74.6824H0V67.3072H2.49171V74.6824ZM96.905 74.6023H94.4141V67.2271H96.905V74.6023ZM2.49171 59.931H0V52.5557H2.49171V59.931ZM96.905 59.8518H94.4141V52.4764H96.905V59.8518ZM2.49171 45.18H0V37.8043H2.49171V45.18ZM96.905 45.0996H94.4141V37.724H96.905V45.0996ZM2.49171 30.4296H0.00196226V25.9935C0.00196226 24.8113 0.259247 23.6751 0.766562 22.6133L3.01412 23.6872C2.66752 24.4098 2.49171 25.1856 2.49171 25.9935V30.4296ZM96.905 30.3492H94.4132V25.9935C94.4132 25.1636 94.229 24.3687 93.8647 23.63L96.0972 22.528C96.6338 23.6119 96.905 24.7781 96.905 25.9935V30.3492ZM89.0227 20.6482H81.6395V18.1602H89.0227V20.6482ZM74.2563 20.6482H66.8721V18.1602H74.2563V20.6482ZM59.4881 20.6482H52.1048V18.1602H59.4881V20.6482ZM44.7233 20.6482H37.3393V18.1602H44.7233V20.6482ZM29.9546 20.6482H22.571V18.1602H29.9546V20.6482ZM15.1883 20.6482H7.84279L7.80363 18.1602H15.1883V20.6482Z" fill="#F46A6A"/>
<path d="M107.295 139.597H21.8151C17.9801 139.597 14.8726 136.492 14.8726 132.663V6.93412C14.8726 3.1052 17.9801 0 21.8151 0H80.2061C91.4802 18.5783 105.636 26.3975 114.237 31.1617V132.663C114.237 136.492 111.129 139.597 107.295 139.597Z" fill="#FFDBDB"/>
<path d="M80.2046 0V26.2068C80.2046 28.9437 82.426 31.1628 85.1651 31.1628H114.237L80.2046 0Z" fill="#F46A6A"/>
<path d="M51.4089 52.7919C51.4089 54.6094 49.9322 56.0838 48.1143 56.0838C46.2948 56.0838 44.8198 54.6094 44.8198 52.7919C44.8198 50.9743 46.2948 49.502 48.1143 49.502C49.9322 49.502 51.4089 50.9743 51.4089 52.7919Z" fill="#F46A6A"/>
<path d="M86.7311 52.7919C86.7311 54.6094 85.2553 56.0838 83.4366 56.0838C81.617 56.0838 80.1421 54.6094 80.1421 52.7919C80.1421 50.9743 81.617 49.502 83.4366 49.502C85.2553 49.502 86.7311 50.9743 86.7311 52.7919Z" fill="#F46A6A"/>
<path d="M54.4328 79.0521C54.4055 79.0521 54.3774 79.0495 54.3492 79.0453C53.9901 79.0001 53.7359 78.6729 53.7811 78.3159C53.7964 78.1914 55.4684 65.8652 65.8067 65.8652C76.1441 65.8652 77.8161 78.1914 77.8323 78.3159C77.8775 78.6729 77.6233 79.0001 77.265 79.0453C76.8999 79.0973 76.5766 78.8365 76.5314 78.4795C76.4725 78.0176 74.9848 67.175 65.8067 67.175C56.6286 67.175 55.1409 78.0176 55.0811 78.4795C55.0393 78.8101 54.757 79.0521 54.4328 79.0521Z" fill="#F46A6A"/>
<path d="M85.3818 31.1631H114.237V38.9332C114.237 38.9332 109.784 32.3223 85.3818 31.1631Z" fill="#CD3A3A"/>
</svg>
