<svg width="511" height="255" viewBox="0 0 511 255" fill="none" xmlns="http://www.w3.org/2000/svg">
<g clip-path="url(#clip0_868_58)">
<mask id="mask0_868_58" style="mask-type:luminance" maskUnits="userSpaceOnUse" x="0" y="0" width="511" height="255">
<path d="M511 0H0V255H511V0Z" fill="white"/>
</mask>
<g mask="url(#mask0_868_58)">
<path d="M2.67098 238.456H508.327C509.739 238.428 510.907 239.55 510.935 240.962C510.963 242.375 509.841 243.543 508.429 243.571C508.395 243.572 508.361 243.572 508.327 243.571H430.294C430.317 244.548 429.544 245.359 428.567 245.382C427.59 245.405 426.778 244.632 426.755 243.655C426.754 243.627 426.754 243.599 426.755 243.571H398.455C398.455 245.122 397.198 246.379 395.647 246.379C394.096 246.379 392.838 245.122 392.838 243.571H372.396C372.396 245.866 370.535 247.727 368.24 247.727C365.945 247.727 364.084 245.866 364.084 243.571H288.604C288.627 244.548 287.854 245.359 286.877 245.382C285.9 245.405 285.088 244.632 285.065 243.655C285.064 243.627 285.064 243.599 285.065 243.571H256.765C256.765 245.122 255.508 246.379 253.957 246.379C252.406 246.379 251.148 245.122 251.148 243.571H230.706C230.708 245.866 228.849 247.729 226.554 247.731C224.259 247.733 222.396 245.874 222.394 243.579C222.394 243.577 222.394 243.574 222.394 243.571H146.914C146.937 244.548 146.164 245.359 145.187 245.382C144.21 245.405 143.398 244.632 143.375 243.655C143.374 243.627 143.374 243.599 143.375 243.571H115.075C115.075 245.122 113.818 246.379 112.267 246.379C110.716 246.379 109.458 245.122 109.458 243.571H89.014C89.014 245.866 87.153 247.727 84.858 247.727C82.563 247.727 80.702 245.866 80.702 243.571H2.67098C1.25898 243.599 0.0909822 242.476 0.0629823 241.064C0.0349825 239.651 1.15699 238.484 2.56899 238.456C2.60299 238.455 2.63699 238.455 2.67098 238.456Z" fill="#CACED5"/>
<path d="M371.727 166.398C372.407 166.4 372.958 166.951 372.96 167.631V170.554C372.955 171.235 372.4 171.783 371.719 171.778C371.045 171.773 370.499 171.228 370.494 170.554V167.631C370.495 166.95 371.046 166.4 371.727 166.398ZM392.369 165.439C393.049 165.441 393.6 165.992 393.602 166.672V169.595C393.597 170.276 393.042 170.825 392.361 170.82C391.687 170.815 391.141 170.269 391.136 169.595V166.671C391.138 165.99 391.689 165.439 392.37 165.438L392.369 165.439ZM392.369 221.886C393.049 221.888 393.6 222.439 393.602 223.119V226.042C393.597 226.723 393.042 227.272 392.361 227.267C391.687 227.262 391.141 226.716 391.136 226.042V223.119C391.135 222.436 391.687 221.882 392.37 221.881L392.369 221.886ZM392.369 212.478C393.049 212.48 393.6 213.031 393.602 213.711V216.634C393.597 217.315 393.042 217.864 392.361 217.859C391.687 217.854 391.141 217.308 391.136 216.634V213.711C391.139 213.031 391.69 212.482 392.37 212.481L392.369 212.478ZM392.369 203.07C393.049 203.072 393.6 203.623 393.602 204.303V207.226C393.597 207.907 393.042 208.455 392.361 208.45C391.687 208.445 391.141 207.9 391.136 207.226V204.303C391.137 203.622 391.689 203.07 392.37 203.069L392.369 203.07ZM392.369 193.662C393.049 193.664 393.6 194.215 393.602 194.895V197.818C393.597 198.499 393.042 199.047 392.361 199.042C391.687 199.037 391.141 198.492 391.136 197.818V194.895C391.138 194.214 391.688 193.663 392.369 193.662ZM392.369 184.254C393.049 184.256 393.6 184.807 393.602 185.487V188.41C393.597 189.091 393.042 189.639 392.361 189.634C391.687 189.629 391.141 189.084 391.136 188.41V185.487C391.138 184.806 391.688 184.255 392.369 184.254ZM392.369 174.846C393.049 174.848 393.6 175.399 393.602 176.079V179.002C393.597 179.683 393.042 180.231 392.361 180.226C391.687 180.221 391.141 179.676 391.136 179.002V176.081C391.137 175.4 391.688 174.847 392.369 174.846ZM397.347 158.724C398.027 158.726 398.578 159.277 398.58 159.957V162.881C398.575 163.562 398.02 164.111 397.339 164.106C396.665 164.101 396.119 163.555 396.114 162.881V159.958C396.115 159.277 396.666 158.726 397.347 158.724ZM397.347 215.172C398.027 215.174 398.578 215.725 398.58 216.405V219.328C398.575 220.009 398.02 220.557 397.339 220.552C396.665 220.547 396.119 220.002 396.114 219.328V216.405C396.116 215.725 396.667 215.174 397.347 215.172ZM397.347 205.764C398.027 205.766 398.578 206.317 398.58 206.997V209.92C398.575 210.601 398.02 211.149 397.339 211.144C396.665 211.139 396.119 210.594 396.114 209.92V206.997C396.116 206.317 396.667 205.766 397.347 205.764ZM397.347 196.356C398.027 196.358 398.578 196.909 398.58 197.589V200.512C398.575 201.193 398.02 201.741 397.339 201.736C396.665 201.731 396.119 201.186 396.114 200.512V197.589C396.116 196.909 396.667 196.358 397.347 196.356ZM397.347 186.948C398.027 186.95 398.578 187.501 398.58 188.181V191.104C398.575 191.785 398.02 192.333 397.339 192.328C396.665 192.323 396.119 191.778 396.114 191.104V188.181C396.116 187.501 396.667 186.95 397.347 186.948ZM397.347 177.54C398.027 177.542 398.578 178.093 398.58 178.773V181.696C398.575 182.377 398.02 182.925 397.339 182.92C396.665 182.915 396.119 182.37 396.114 181.696V178.773C396.116 178.093 396.667 177.542 397.347 177.54ZM397.347 168.132C398.027 168.134 398.578 168.685 398.58 169.365V172.288C398.575 172.969 398.02 173.517 397.339 173.512C396.665 173.507 396.119 172.962 396.114 172.288V169.365C396.116 168.685 396.667 168.134 397.347 168.132ZM407.76 199.096C408.44 199.098 408.991 199.649 408.993 200.329V203.252C408.988 203.933 408.433 204.481 407.752 204.476C407.078 204.471 406.532 203.926 406.527 203.252V200.329C406.529 199.649 407.08 199.098 407.76 199.096ZM411.186 188.455C411.866 188.457 412.417 189.008 412.419 189.688V192.611C412.414 193.292 411.859 193.84 411.178 193.835C410.504 193.83 409.958 193.285 409.953 192.611V189.688C409.955 189.008 410.506 188.457 411.186 188.455ZM415.616 181.01C416.296 181.012 416.847 181.563 416.849 182.243V185.166C416.844 185.847 416.289 186.395 415.608 186.39C414.934 186.385 414.388 185.84 414.383 185.166V182.243C414.385 181.563 414.936 181.012 415.616 181.01ZM372.275 187.221C372.955 187.223 373.506 187.774 373.508 188.454V191.381C373.503 192.062 372.948 192.611 372.267 192.606C371.593 192.601 371.048 192.055 371.043 191.381V188.458C371.042 187.776 371.593 187.223 372.275 187.221ZM367.708 177.174C368.388 177.176 368.939 177.727 368.941 178.407V181.33C368.936 182.011 368.381 182.559 367.7 182.554C367.026 182.549 366.481 182.004 366.476 181.33V178.407C366.478 177.727 367.028 177.176 367.708 177.174ZM387.675 203.096V238.454H382.153V205.009C365.443 204.951 357.321 196.62 357.321 179.963V167.873C357.321 161.099 362.812 155.608 369.586 155.608C376.36 155.608 381.851 161.099 381.851 167.873V179.741C381.851 180.773 382.152 180.869 382.152 179.735V155.766C382.152 148.992 387.643 143.501 394.417 143.501C401.191 143.501 406.682 148.992 406.682 155.766V171.973C412.063 167.861 419.758 168.888 423.87 174.269C425.505 176.408 426.391 179.026 426.39 181.718V191.361C426.39 204.51 420.21 212.878 406.682 213.725V238.453H401.159V209.663C401.159 208.063 402.866 208.282 403.939 208.282C415.688 208.282 420.868 203.097 420.868 191.361V181.718C420.913 177.995 417.93 174.941 414.207 174.896C410.484 174.851 407.43 177.834 407.385 181.557C407.384 181.611 407.384 181.664 407.385 181.718V190.481C407.385 197.958 401.16 196.414 401.16 190.937V155.766C401.205 152.043 398.222 148.989 394.499 148.944C390.776 148.899 387.722 151.881 387.677 155.604C387.676 155.658 387.676 155.712 387.677 155.766V182.421C387.677 183.638 388.077 186.002 386.296 186.002C383.932 186.002 381.465 186.076 379.113 185.935C376.93 185.805 376.513 185.37 376.39 183.194C376.331 182.123 376.329 181.034 376.329 179.962V167.872C376.374 164.149 373.391 161.095 369.668 161.05C365.945 161.005 362.891 163.987 362.846 167.71C362.845 167.764 362.845 167.818 362.846 167.872V179.962C362.846 193.677 368.645 199.485 382.368 199.485H386.287C388.03 199.485 387.676 201.772 387.676 203.095L387.675 203.096ZM126.454 171.781C127.134 171.783 127.685 172.334 127.687 173.014V175.937C127.682 176.618 127.127 177.166 126.446 177.161C125.772 177.156 125.226 176.611 125.221 175.937V173.014C125.223 172.334 125.774 171.783 126.454 171.781ZM111.32 199.043V169.889C111.32 163.115 116.811 157.624 123.585 157.624C130.359 157.624 135.851 163.115 135.851 169.889V175.981C141.576 172.363 149.15 174.072 152.768 179.797C154.007 181.758 154.664 184.03 154.664 186.35V195.505C154.664 208.018 148.603 216.367 135.851 217.335V238.459H130.328V214.587C130.328 212.511 130.328 211.916 132.717 211.916C144.042 211.916 149.142 206.698 149.142 195.5V186.345C149.187 182.622 146.204 179.568 142.481 179.523C138.758 179.478 135.704 182.46 135.659 186.183C135.658 186.237 135.658 186.291 135.659 186.345V194.945C135.659 198.067 130.328 198.172 130.328 195.311V169.891C130.373 166.168 127.39 163.114 123.667 163.069C119.944 163.024 116.89 166.006 116.845 169.729C116.844 169.783 116.844 169.837 116.845 169.891V201.556C116.845 208.799 102.845 210.327 102.845 199.128V185.688C102.89 181.965 99.907 178.911 96.184 178.866C92.461 178.821 89.406 181.803 89.361 185.526C89.36 185.58 89.36 185.634 89.361 185.688V199.128C89.361 213.851 95.462 220.049 110.299 220.049C111.931 220.049 116.842 219.28 116.842 221.43V238.455H111.32V225.571H110.299C92.432 225.571 83.838 216.889 83.838 199.126V185.686C83.838 178.912 89.329 173.421 96.103 173.421C102.877 173.421 108.368 178.912 108.368 185.686V199.126C108.368 201.957 111.32 202.297 111.32 199.043ZM133.971 203.936C134.651 203.938 135.202 204.489 135.204 205.169V208.092C135.199 208.773 134.643 209.321 133.962 209.316C133.288 209.311 132.743 208.766 132.738 208.092V205.169C132.74 204.488 133.29 203.937 133.971 203.936ZM110.221 210.695C110.901 210.697 111.453 211.248 111.455 211.928V214.851C111.45 215.532 110.894 216.08 110.213 216.075C109.539 216.07 108.994 215.525 108.989 214.851V211.928C108.991 211.247 109.541 210.696 110.222 210.695H110.221ZM140.546 195.715C141.226 195.717 141.777 196.268 141.779 196.948V199.871C141.774 200.552 141.219 201.1 140.538 201.095C139.864 201.09 139.319 200.545 139.314 199.871V196.948C139.316 196.268 139.867 195.717 140.547 195.716L140.546 195.715ZM101.681 209.964C102.361 209.966 102.912 210.517 102.914 211.197V214.12C102.909 214.801 102.354 215.349 101.673 215.344C100.999 215.339 100.454 214.794 100.449 214.12V211.197C100.451 210.517 101.002 209.966 101.682 209.965L101.681 209.964ZM98.21 197.908C98.89 197.91 99.442 198.461 99.444 199.141V202.064C99.439 202.745 98.883 203.293 98.202 203.288C97.528 203.283 96.983 202.738 96.978 202.064V199.141C96.98 198.46 97.53 197.909 98.211 197.908H98.21ZM94.147 188.408C94.827 188.41 95.378 188.961 95.38 189.641V192.564C95.375 193.245 94.819 193.793 94.138 193.788C93.464 193.783 92.919 193.238 92.914 192.564V189.641C92.916 188.961 93.466 188.411 94.146 188.409L94.147 188.408ZM143.516 186.216C144.196 186.218 144.747 186.769 144.749 187.449V190.372C144.744 191.053 144.188 191.601 143.507 191.596C142.833 191.591 142.288 191.046 142.283 190.372V187.449C142.285 186.769 142.835 186.219 143.515 186.217L143.516 186.216ZM121.157 168.337C121.837 168.339 122.388 168.89 122.39 169.57V172.493C122.385 173.174 121.829 173.722 121.148 173.717C120.474 173.712 119.929 173.167 119.924 172.493V169.571C119.926 168.891 120.476 168.34 121.156 168.338L121.157 168.337ZM121.157 224.784C121.837 224.786 122.388 225.337 122.39 226.017V228.94C122.385 229.621 121.829 230.169 121.148 230.164C120.474 230.159 119.929 229.614 119.924 228.94V226.017C119.924 225.336 120.475 224.783 121.156 224.781L121.157 224.784ZM121.157 215.376C121.837 215.378 122.388 215.929 122.39 216.609V219.532C122.385 220.213 121.829 220.761 121.148 220.756C120.474 220.751 119.929 220.206 119.924 219.532V216.609C119.929 215.931 120.478 215.383 121.156 215.381L121.157 215.376ZM121.157 205.968C121.837 205.97 122.388 206.521 122.39 207.201V210.124C122.385 210.805 121.829 211.353 121.148 211.348C120.474 211.343 119.929 210.798 119.924 210.124V207.201C119.927 206.522 120.477 205.972 121.156 205.97L121.157 205.968ZM121.157 196.56C121.837 196.562 122.388 197.113 122.39 197.793V200.716C122.385 201.397 121.829 201.945 121.148 201.94C120.474 201.935 119.929 201.39 119.924 200.716V197.793C119.927 197.114 120.477 196.564 121.156 196.562L121.157 196.56ZM121.157 187.152C121.837 187.154 122.388 187.705 122.39 188.385V191.308C122.385 191.989 121.829 192.537 121.148 192.532C120.474 192.527 119.929 191.982 119.924 191.308V188.385C119.927 187.706 120.477 187.156 121.156 187.154L121.157 187.152ZM121.157 177.744C121.837 177.746 122.388 178.297 122.39 178.977V181.9C122.385 182.581 121.829 183.129 121.148 183.124C120.474 183.119 119.929 182.574 119.924 181.9V178.981C119.925 178.3 120.475 177.748 121.156 177.746L121.157 177.744ZM126.457 228.225C127.137 228.227 127.688 228.778 127.69 229.458V232.381C127.685 233.062 127.129 233.611 126.448 233.606C125.774 233.601 125.229 233.055 125.224 232.381V229.458C125.227 228.779 125.775 228.23 126.454 228.227L126.457 228.225ZM126.457 218.817C127.137 218.819 127.688 219.37 127.69 220.05V222.973C127.685 223.654 127.129 224.202 126.448 224.197C125.774 224.192 125.229 223.647 125.224 222.973V220.05C125.227 219.371 125.776 218.822 126.454 218.819L126.457 218.817ZM126.457 209.409C127.137 209.411 127.688 209.962 127.69 210.642V213.565C127.685 214.246 127.129 214.794 126.448 214.789C125.774 214.784 125.229 214.239 125.224 213.565V210.642C125.227 209.964 125.776 209.414 126.454 209.411L126.457 209.409ZM126.457 200.001C127.137 200.003 127.688 200.554 127.69 201.234V204.157C127.685 204.838 127.129 205.386 126.448 205.381C125.774 205.376 125.229 204.831 125.224 204.157V201.234C125.227 200.556 125.776 200.006 126.454 200.003L126.457 200.001ZM126.457 190.593C127.137 190.595 127.688 191.146 127.69 191.826V194.749C127.685 195.43 127.129 195.978 126.448 195.973C125.774 195.968 125.229 195.423 125.224 194.749V191.826C125.227 191.148 125.776 190.598 126.454 190.595L126.457 190.593ZM126.457 181.185C127.137 181.187 127.688 181.738 127.69 182.418V185.341C127.685 186.022 127.129 186.57 126.448 186.565C125.774 186.56 125.229 186.015 125.224 185.341V182.418C125.228 181.74 125.776 181.191 126.454 181.188L126.457 181.185Z" fill="#CACED5"/>
<path d="M270.556 170.699L285.46 155.795L314.542 184.877C317.276 187.611 317.276 192.042 314.542 194.776L309.537 199.781C306.803 202.515 302.372 202.515 299.638 199.781L270.556 170.699Z" fill="#B6BBC4"/>
<path d="M235.608 188.265C198.114 188.216 167.758 157.781 167.807 120.287C167.856 82.7924 198.292 52.4364 235.786 52.4854C273.28 52.5354 303.636 82.9694 303.587 120.464C303.552 148.065 286.809 172.896 261.235 183.279C253.096 186.584 244.393 188.277 235.608 188.265ZM235.616 63.4184C204.302 63.4294 178.924 88.8244 178.936 120.138C178.946 151.452 204.341 176.83 235.655 176.819C266.969 176.807 292.347 151.412 292.337 120.098C292.331 105.075 286.362 90.6674 275.743 80.0404C265.124 69.3624 250.675 63.3774 235.616 63.4184Z" fill="#CACED5"/>
<g opacity="0.996678">
<path d="M157.046 141.368C161.464 141.368 165.046 144.95 165.046 149.368C165.046 153.786 161.464 157.368 157.046 157.368C152.628 157.368 149.046 153.786 149.046 149.368C149.046 144.95 152.628 141.368 157.046 141.368Z" fill="#CACED5"/>
</g>
<g opacity="0.996678">
<path d="M330.046 148.368C334.464 148.368 338.046 151.95 338.046 156.368C338.046 160.786 334.464 164.368 330.046 164.368C325.628 164.368 322.046 160.786 322.046 156.368C322.046 151.95 325.628 148.368 330.046 148.368Z" fill="#B6BBC4"/>
</g>
<g opacity="0.996678">
<path d="M159.546 62.3682C162.584 62.3682 165.046 64.8302 165.046 67.8682C165.046 70.9062 162.584 73.3682 159.546 73.3682C156.508 73.3682 154.046 70.9062 154.046 67.8682C154.046 64.8302 156.508 62.3682 159.546 62.3682Z" fill="#B6BBC4"/>
</g>
<g opacity="0.996678">
<path d="M319.546 123.368C322.584 123.368 325.046 126.054 325.046 129.368C325.046 132.682 322.584 135.368 319.546 135.368C316.508 135.368 314.046 132.682 314.046 129.368C314.046 126.054 316.508 123.368 319.546 123.368Z" fill="#CACED5"/>
</g>
<g opacity="0.996678">
<path d="M216.546 206.107C219.584 206.107 222.046 208.793 222.046 212.107C222.046 215.421 219.584 218.107 216.546 218.107C213.508 218.107 211.046 215.421 211.046 212.107C211.046 208.793 213.508 206.107 216.546 206.107Z" fill="#CACED5"/>
</g>
<g opacity="0.996678">
<path d="M218.046 29.3682C220.255 29.3682 222.046 31.1592 222.046 33.3682C222.046 35.5772 220.255 37.3682 218.046 37.3682C215.837 37.3682 214.046 35.5772 214.046 33.3682C214.046 31.1592 215.837 29.3682 218.046 29.3682Z" fill="#CACED5"/>
</g>
<path d="M176.062 225.248C176.199 225.33 176.313 225.445 176.394 225.584C176.72 224.839 177.141 224.139 177.647 223.502C177.018 223.117 176.281 222.946 175.547 223.018C175.287 223.044 175.042 223.151 174.846 223.323C174.741 223.423 174.683 223.563 174.686 223.707C174.703 224.131 175.105 224.68 176.061 225.248L176.062 225.248ZM175.951 226.909C175.676 227.026 175.362 227.005 175.106 226.853C173.863 226.287 172.999 225.121 172.819 223.766C172.795 223.106 173.049 222.467 173.523 222.006C173.999 221.551 174.607 221.258 175.26 221.172C176.56 221.035 177.866 221.365 178.943 222.105C179.292 221.783 179.658 221.479 180.035 221.189L179.997 221.161C178.692 220.207 177.323 219.342 175.901 218.574C175.766 218.58 175.634 218.59 175.504 218.604C175.242 218.829 174.993 219.069 174.758 219.321C173.466 220.78 172.413 222.433 171.639 224.221C171.255 225.063 170.927 225.933 170.659 226.819C171.902 228.313 173.78 229.125 175.72 229.008C175.707 228.3 175.784 227.594 175.95 226.905L175.951 226.909ZM180.456 223.307C180.591 223.44 180.727 223.578 180.862 223.724C181.935 224.786 182.147 226.443 181.377 227.74C180.93 228.521 180.295 229.179 179.532 229.657C178.985 230.01 178.396 230.289 177.777 230.488C177.826 230.73 177.888 230.979 177.965 231.234C178 231.344 178.031 231.443 178.067 231.539C179.69 230.08 181.12 228.419 182.323 226.599C182.804 225.873 183.231 225.114 183.6 224.325C182.968 223.638 182.294 222.994 181.581 222.394C181.192 222.677 180.817 222.979 180.459 223.301L180.456 223.307ZM179.487 224.999C179.382 224.884 179.28 224.78 179.174 224.675C178.277 225.783 177.739 227.138 177.63 228.56C177.936 228.434 178.229 228.279 178.507 228.099C179.01 227.789 179.432 227.361 179.732 226.852C180.088 226.251 179.989 225.485 179.491 224.995L179.487 224.999ZM175.937 230.866C173.898 231.039 171.873 230.396 170.305 229.08C170.205 230.326 170.318 231.58 170.636 232.789C171.514 233.437 172.467 233.976 173.474 234.397C174.59 234.05 175.634 233.501 176.553 232.779C176.398 232.459 176.27 232.126 176.169 231.784C176.075 231.473 175.998 231.168 175.935 230.869L175.937 230.866ZM168.625 227.263L168.449 227.012C167.827 226.094 167.774 224.26 168.417 222.419C168.689 221.637 169.064 220.895 169.533 220.213C168.701 220.74 167.97 221.413 167.375 222.197C167.321 224.45 167.684 226.693 168.447 228.814C168.458 228.592 168.471 228.367 168.489 228.133C168.514 227.84 168.559 227.548 168.623 227.261L168.625 227.263ZM170.994 221.384C170.743 221.765 170.528 222.169 170.35 222.59C170.553 222.183 170.768 221.78 170.997 221.38L170.994 221.384ZM183.748 221.329L183.508 221.175L183.212 221.348C183.543 221.639 183.863 221.938 184.174 222.236C184.2 221.881 184.042 221.538 183.755 221.328L183.748 221.329ZM184.87 225.93C184.571 226.515 184.241 227.083 183.88 227.633C182.649 229.497 181.196 231.203 179.555 232.717C179.667 232.707 179.777 232.686 179.885 232.653C181.34 232.031 182.591 231.012 183.494 229.712C184.099 228.665 184.572 227.546 184.903 226.382L184.978 226.083L184.875 225.93L184.87 225.93ZM177.757 234.21C177.279 234.566 176.78 234.893 176.265 235.193C177.316 235.364 178.386 235.376 179.44 235.228C179.642 235 179.842 234.77 180.04 234.539C179.267 234.74 178.444 234.621 177.76 234.207L177.757 234.21ZM176.775 215.729C177.342 215.54 177.938 215.45 178.535 215.461L178.899 215.416C183.251 214.889 185.905 215.765 187.34 217.405L188.145 217.107C188.763 216.881 189.187 216.726 189.196 216.717C189.248 216.672 189.305 216.634 189.365 216.601L189.697 216.389C190.109 216.081 190.694 216.166 191.002 216.578C191.31 216.989 191.224 217.573 190.812 217.881C190.779 217.906 190.744 217.928 190.708 217.948L190.371 218.166C189.871 218.455 189.34 218.685 188.787 218.85L188.3 219.029C188.483 219.526 188.605 220.04 188.666 220.565C188.811 222.691 188.394 224.818 187.458 226.732C187.778 227.447 187.984 228.208 188.07 228.987C188.325 231.538 187.059 233.968 183.401 235.879C182.452 236.376 181.437 236.739 180.387 236.954C179.979 237.395 179.579 237.827 179.174 238.245C177.748 239.874 175.345 240.215 173.521 239.048C172.063 238.185 170.812 237.017 169.851 235.622C169.333 234.913 168.862 234.171 168.438 233.402C166.923 232.092 165.741 230.441 164.989 228.584C164.154 226.584 164.196 224.327 165.102 222.359C165.24 222.069 165.396 221.789 165.569 221.519C165.666 219.129 166.765 216.891 168.596 215.351C169.585 214.573 172.025 214.962 174.837 216.113C175.45 215.967 176.094 215.836 176.77 215.719L176.775 215.729ZM183.057 217.286C183.61 217.654 184.129 218.068 184.61 218.525C184.861 218.41 185.109 218.302 185.351 218.198C184.668 217.721 183.884 217.406 183.06 217.282L183.057 217.286ZM185.862 220.012C186.3 220.676 186.627 221.405 186.83 222.174C186.873 221.716 186.868 221.256 186.815 220.799C186.773 220.429 186.681 220.066 186.543 219.72L185.862 220.012ZM185.04 230.756C184.372 231.914 183.625 233.026 182.806 234.083C185.455 232.622 186.385 230.914 186.213 229.176L186.205 229.096C185.846 229.671 185.458 230.224 185.04 230.756ZM174.405 237.408C175.395 238.054 176.692 237.965 177.584 237.191C176.116 237.135 174.666 236.843 173.289 236.325L174.404 237.408L174.405 237.408ZM169.747 216.828C169.038 217.388 168.475 218.112 168.107 218.938C169.341 218.085 170.687 217.406 172.107 216.92C170.985 216.585 170.136 216.526 169.744 216.825L169.747 216.828Z" fill="#CACED5"/>
<path d="M308.5 230.749C309.991 230.898 266.017 237.408 249.25 229.499C222.75 216.999 245.125 205.249 255.063 212.687C272.272 225.566 254 232.999 193.5 230.999" stroke="#CACED5" stroke-width="3" stroke-linecap="round" stroke-linejoin="round" stroke-dasharray="8 8"/>
<g filter="url(#filter0_f_868_58)">
<path d="M302.744 65.9429C295.087 60.4827 290.545 51.6565 290.552 42.2526V32.6405C290.552 16.5648 303.584 3.5332 319.66 3.5332H328.973C345.049 3.53218 358.084 16.5638 358.085 32.6394C358.085 32.6384 358.085 32.6405 358.085 32.6394V42.2526C358.084 58.3293 345.052 71.3599 328.975 71.3599H319.661C317.655 71.3599 315.654 71.1547 313.691 70.7453L292.979 83.2291L302.744 65.9429Z" fill="white"/>
<path d="M314.537 19.4697H329.091L339.864 30.2422V52.2407C339.873 53.875 338.556 55.2067 336.921 55.2159C336.91 55.2159 336.9 55.2159 336.889 55.2159H314.537C312.903 55.2252 311.571 53.9089 311.562 52.2745C311.562 52.2632 311.562 52.252 311.562 52.2407V22.4481C311.551 20.8137 312.866 19.481 314.5 19.4697C314.513 19.4697 314.525 19.4697 314.537 19.4697Z" fill="#D9E3EB"/>
<path d="M329.206 19.4697L339.979 30.2422H329.206V19.4697Z" fill="#B2C1D1"/>
</g>
</g>
</g>
<defs>
<filter id="filter0_f_868_58" x="287.474" y="0.455349" width="73.689" height="85.852" filterUnits="userSpaceOnUse" color-interpolation-filters="sRGB">
<feFlood flood-opacity="0" result="BackgroundImageFix"/>
<feBlend mode="normal" in="SourceGraphic" in2="BackgroundImageFix" result="shape"/>
<feGaussianBlur stdDeviation="1.53893" result="effect1_foregroundBlur_868_58"/>
</filter>
<clipPath id="clip0_868_58">
<rect width="511" height="255" fill="white"/>
</clipPath>
</defs>
</svg>
