<svg width="245" height="257" viewBox="0 0 245 257" fill="none" xmlns="http://www.w3.org/2000/svg">
<path d="M155.485 214.066H146.742V211.148H155.396L155.485 214.066ZM138.086 214.066H129.43V211.147H138.086V214.066ZM120.776 214.066H112.12V211.147H120.776V214.066ZM103.465 214.066H94.8102V211.147H103.465V214.066ZM86.1536 214.066H77.4981V211.147H86.1536V214.066ZM68.8438 214.066H60.1883V211.147H68.8438V214.066ZM51.9179 208.893C51.3055 207.637 50.9957 206.285 50.9945 204.875V199.719H53.9131V204.874C53.9143 205.837 54.1251 206.759 54.5408 207.617L51.9179 208.893ZM163.711 208.795L161.074 207.545C161.469 206.709 161.668 205.81 161.668 204.874V199.623H164.589V204.874C164.589 206.246 164.293 207.565 163.711 208.795ZM53.9131 191.062H50.9922V182.406H53.9131V191.062ZM164.589 190.969H161.669V182.313H164.589V190.969ZM53.9131 173.752H50.9922V165.097H53.9131V173.752ZM164.589 173.658H161.669V165.002H164.589V173.658ZM53.9131 156.441H50.9922V147.784H53.9131V156.441ZM164.589 156.347H161.669V147.691H164.589V156.347ZM53.9131 139.13H50.9922V130.475H53.9131V139.13ZM164.589 139.037H161.669V130.38H164.589V139.037ZM53.9131 121.82H50.9922V113.165H53.9131V121.82ZM164.589 121.726H161.669V113.071H164.589V121.726ZM53.9131 104.509H50.9922V95.8539H53.9131V104.509ZM164.589 104.416H161.669V95.7608H164.589V104.416ZM53.9131 87.1984H50.9922V78.5429H53.9131V87.1984ZM164.589 87.1041H161.669V78.4487H164.589V87.1041ZM53.9131 69.8886H50.9945V64.6828C50.9945 63.2954 51.2961 61.9621 51.8908 60.716L54.5255 61.9763C54.1192 62.8243 53.9131 63.7347 53.9131 64.6828V69.8886ZM164.589 69.7943H161.668V64.6828C161.668 63.7088 161.452 62.776 161.025 61.9091L163.642 60.6159C164.271 61.8879 164.589 63.2565 164.589 64.6828V69.7943ZM155.349 58.4099H146.694V55.4902H155.349V58.4099ZM138.039 58.4099H129.383V55.4902H138.039V58.4099ZM120.727 58.4099H112.072V55.4902H120.727V58.4099ZM103.419 58.4099H94.7631V55.4902H103.419V58.4099ZM86.1065 58.4099H77.451V55.4902H86.1065V58.4099ZM68.7967 58.4099H60.1859L60.14 55.4902H68.7967V58.4099Z" fill="#707070"/>
<path d="M176.769 197.998H76.5652C72.0696 197.998 68.4268 194.354 68.4268 189.861V42.316C68.4268 37.8227 72.0696 34.1787 76.5652 34.1787H145.014C158.23 55.9806 174.824 65.1566 184.907 70.7475V189.861C184.907 194.354 181.263 197.998 176.769 197.998Z" fill="#AEAEAE"/>
<path d="M204.248 205.693L233.797 235.245C235.94 237.387 235.94 240.862 233.797 243.003C231.655 245.145 228.183 245.145 226.039 243.003L196.49 213.451C189.058 219.228 179.721 222.667 169.58 222.667C145.344 222.667 125.695 203.021 125.695 178.784C125.695 154.548 145.344 134.9 169.58 134.9C193.817 134.9 213.464 154.548 213.464 178.784C213.464 188.925 210.024 198.262 204.248 205.693ZM169.58 211.696C187.758 211.696 202.492 196.961 202.492 178.784C202.492 160.607 187.758 145.87 169.58 145.87C151.402 145.87 136.667 160.607 136.667 178.784C136.667 196.961 151.402 211.696 169.58 211.696Z" fill="#CECECE"/>
<path d="M145.012 34.1787V64.9328C145.012 68.1446 147.616 70.7487 150.827 70.7487H184.906L145.012 34.1787Z" fill="#919191"/>
<path d="M18.747 77.5048C15.0211 77.5048 11.9902 74.4749 11.9902 70.749C11.9902 67.023 15.0211 63.9912 18.747 63.9912C22.473 63.9912 25.5038 67.023 25.5038 70.749C25.5038 74.4749 22.473 77.5048 18.747 77.5048ZM18.747 65.1689C15.6701 65.1689 13.1679 67.672 13.1679 70.749C13.1679 73.8249 15.6701 76.3271 18.747 76.3271C21.824 76.3271 24.3261 73.8249 24.3261 70.749C24.3261 67.672 21.824 65.1689 18.747 65.1689Z" fill="#CECECE"/>
<path d="M169.339 32.0399C169.339 32.3263 169.107 32.5582 168.821 32.5582C168.534 32.5582 168.302 32.3263 168.302 32.0399C168.302 31.7535 168.534 31.5215 168.821 31.5215C169.107 31.5215 169.339 31.7535 169.339 32.0399Z" fill="#EBEBEB"/>
<path d="M244.627 64.8509H240.413V60.6377H238.544V64.8509H234.33V66.7211H238.544V70.9343H240.413V66.7211H244.627V64.8509Z" fill="#EBEBEB"/>
<path d="M148.216 252.259H145.535V249.578H144.345V252.259H141.664V253.448H144.345V256.13H145.535V253.448H148.216V252.259Z" fill="#EBEBEB"/>
<path d="M13.6959 155.604H8.09134V150.001H5.60456V155.604H0V158.091H5.60456V163.697H8.09134V158.091H13.6959V155.604Z" fill="#CECECE"/>
<path d="M131.432 13.4337C129.282 13.4337 127.533 11.6847 127.533 9.53426C127.533 7.38379 129.282 5.63477 131.432 5.63477C133.583 5.63477 135.332 7.38379 135.332 9.53426C135.332 11.6847 133.583 13.4337 131.432 13.4337ZM131.432 6.31482C129.657 6.31482 128.213 7.76021 128.213 9.53426C128.213 11.3094 129.657 12.7537 131.432 12.7537C133.207 12.7537 134.652 11.3094 134.652 9.53426C134.652 7.76021 133.207 6.31482 131.432 6.31482Z" fill="#707070"/>
<path d="M26.4595 214.497C25.4157 214.497 24.5667 213.648 24.5667 212.605C24.5667 211.562 25.4157 210.713 26.4595 210.713C27.503 210.713 28.3516 211.562 28.3516 212.605C28.3516 213.648 27.503 214.497 26.4595 214.497ZM26.4595 211.042C25.5981 211.042 24.8966 211.744 24.8966 212.605C24.8966 213.466 25.5981 214.168 26.4595 214.168C27.3206 214.168 28.0217 213.466 28.0217 212.605C28.0217 211.744 27.3206 211.042 26.4595 211.042Z" fill="#919191"/>
<path d="M111.256 96.1313C111.256 98.2642 109.525 99.9944 107.394 99.9944C105.261 99.9944 103.532 98.2642 103.532 96.1313C103.532 93.9983 105.261 92.2705 107.394 92.2705C109.525 92.2705 111.256 93.9983 111.256 96.1313Z" fill="#666666"/>
<path d="M152.663 96.1313C152.663 98.2642 150.933 99.9944 148.801 99.9944C146.668 99.9944 144.939 98.2642 144.939 96.1313C144.939 93.9983 146.668 92.2705 148.801 92.2705C150.933 92.2705 152.663 93.9983 152.663 96.1313Z" fill="#666666"/>
<path d="M114.801 126.947C114.769 126.947 114.736 126.944 114.703 126.939C114.282 126.886 113.984 126.502 114.037 126.083C114.055 125.937 116.015 111.472 128.134 111.472C140.252 111.472 142.212 125.937 142.231 126.083C142.284 126.502 141.986 126.886 141.566 126.939C141.138 127 140.759 126.694 140.706 126.275C140.637 125.733 138.893 113.009 128.134 113.009C117.375 113.009 115.631 125.733 115.561 126.275C115.512 126.663 115.181 126.947 114.801 126.947Z" fill="#666666"/>
<path d="M211.755 136.086C211.755 136.786 211.187 137.354 210.487 137.354C209.786 137.354 209.219 136.786 209.219 136.086C209.219 135.385 209.786 134.817 210.487 134.817C211.187 134.817 211.755 135.385 211.755 136.086Z" fill="#707070"/>
<path d="M151.081 70.749H184.907V79.8674C184.907 79.8674 179.686 72.1094 151.081 70.749Z" fill="#5B5B5B"/>
</svg>
