<svg width="134" height="180" viewBox="0 0 134 180" fill="none" xmlns="http://www.w3.org/2000/svg">
<path d="M104.493 179.887H95.7498V176.969H104.404L104.493 179.887ZM87.0938 179.887H78.4378V176.968H87.0938V179.887ZM69.7838 179.887H61.1278V176.968H69.7838V179.887ZM52.4728 179.887H43.818V176.968H52.4728V179.887ZM35.1614 179.887H26.5059V176.968H35.1614V179.887ZM17.8516 179.887H9.1961V176.968H17.8516V179.887ZM0.925701 174.714C0.313301 173.458 0.00350026 172.106 0.00230026 170.696V165.54H2.9209V170.695C2.9221 171.658 3.1329 172.58 3.5486 173.438L0.925701 174.714ZM112.719 174.616L110.082 173.366C110.477 172.53 110.676 171.631 110.676 170.695V165.444H113.597V170.695C113.597 172.067 113.301 173.386 112.719 174.616ZM2.9209 156.883H0V148.227H2.9209V156.883ZM113.597 156.79H110.677V148.134H113.597V156.79ZM2.9209 139.573H0V130.918H2.9209V139.573ZM113.597 139.479H110.677V130.823H113.597V139.479ZM2.9209 122.262H0V113.605H2.9209V122.262ZM113.597 122.168H110.677V113.512H113.597V122.168ZM2.9209 104.951H0V96.2963H2.9209V104.951ZM113.597 104.858H110.677V96.2013H113.597V104.858ZM2.9209 87.6413H0V78.9863H2.9209V87.6413ZM113.597 87.5473H110.677V78.8923H113.597V87.5473ZM2.9209 70.3303H0V61.6752H2.9209V70.3303ZM113.597 70.2373H110.677V61.5821H113.597V70.2373ZM2.9209 53.0197H0V44.3642H2.9209V53.0197ZM113.597 52.9254H110.677V44.27H113.597V52.9254ZM2.9209 35.7099H0.00230026V30.5041C0.00230026 29.1167 0.303902 27.7834 0.898602 26.5373L3.5333 27.7976C3.127 28.6456 2.9209 29.556 2.9209 30.5041V35.7099ZM113.597 35.6156H110.676V30.5041C110.676 29.5301 110.46 28.5973 110.033 27.7304L112.65 26.4372C113.279 27.7092 113.597 29.0778 113.597 30.5041V35.6156ZM104.357 24.2312H95.7018V21.3115H104.357V24.2312ZM87.0468 24.2312H78.3908V21.3115H87.0468V24.2312ZM69.7348 24.2312H61.0798V21.3115H69.7348V24.2312ZM52.4268 24.2312H43.7709V21.3115H52.4268V24.2312ZM35.1143 24.2312H26.4588V21.3115H35.1143V24.2312ZM17.8045 24.2312H9.1937L9.1478 21.3115H17.8045V24.2312Z" fill="#707070"/>
<path d="M125.777 163.819H25.573C21.0774 163.819 17.4346 160.175 17.4346 155.682V8.1373C17.4346 3.644 21.0774 0 25.573 0H94.0218C107.238 21.8019 123.832 30.9779 133.915 36.5688V155.682C133.915 160.175 130.271 163.819 125.777 163.819Z" fill="#EAEAEA"/>
<path d="M94.02 0V30.7541C94.02 33.9659 96.624 36.57 99.835 36.57H133.914L94.02 0Z" fill="#919191"/>
<path d="M60.264 61.9526C60.264 64.0855 58.533 65.8157 56.402 65.8157C54.269 65.8157 52.54 64.0855 52.54 61.9526C52.54 59.8196 54.269 58.0918 56.402 58.0918C58.533 58.0918 60.264 59.8196 60.264 61.9526Z" fill="#666666"/>
<path d="M101.671 61.9526C101.671 64.0855 99.9408 65.8157 97.8088 65.8157C95.6758 65.8157 93.9468 64.0855 93.9468 61.9526C93.9468 59.8196 95.6758 58.0918 97.8088 58.0918C99.9408 58.0918 101.671 59.8196 101.671 61.9526Z" fill="#666666"/>
<path d="M63.8087 92.768C63.7767 92.768 63.7437 92.765 63.7107 92.76C63.2897 92.707 62.9917 92.323 63.0447 91.904C63.0627 91.758 65.0227 77.293 77.1417 77.293C89.2597 77.293 91.2197 91.758 91.2387 91.904C91.2917 92.323 90.9937 92.707 90.5737 92.76C90.1457 92.821 89.7667 92.515 89.7137 92.096C89.6447 91.554 87.9007 78.83 77.1417 78.83C66.3827 78.83 64.6387 91.554 64.5687 92.096C64.5197 92.484 64.1887 92.768 63.8087 92.768Z" fill="#666666"/>
<path d="M100.089 36.5703H133.915V45.6887C133.915 45.6887 128.694 37.9307 100.089 36.5703Z" fill="#5B5B5B"/>
</svg>
